<svg width="138" height="48" viewBox="0 0 138 48" fill="none" xmlns="http://www.w3.org/2000/svg">
<path d="M58.7261 24.6156C58.7261 31.2782 53.6577 36.1878 47.4375 36.1878C41.2174 36.1878 36.1489 31.2782 36.1489 24.6156C36.1489 17.9061 41.2174 13.0435 47.4375 13.0435C53.6577 13.0435 58.7261 17.9061 58.7261 24.6156ZM53.7845 24.6156C53.7845 20.4522 50.8469 17.6035 47.4375 17.6035C44.0281 17.6035 41.0905 20.4522 41.0905 24.6156C41.0905 28.7374 44.0281 31.6278 47.4375 31.6278C50.8469 31.6278 53.7845 28.7322 53.7845 24.6156Z" fill="#EA4335"/>
<path d="M83.079 24.6156C83.079 31.2782 78.0106 36.1878 71.7904 36.1878C65.5703 36.1878 60.5018 31.2782 60.5018 24.6156C60.5018 17.9113 65.5703 13.0435 71.7904 13.0435C78.0106 13.0435 83.079 17.9061 83.079 24.6156ZM78.1374 24.6156C78.1374 20.4522 75.1998 17.6035 71.7904 17.6035C68.381 17.6035 65.4435 20.4522 65.4435 24.6156C65.4435 28.7374 68.381 31.6278 71.7904 31.6278C75.1998 31.6278 78.1374 28.7322 78.1374 24.6156Z" fill="#FBBC05"/>
<path d="M106.417 13.7426V34.5183C106.417 43.0643 101.516 46.5548 95.7224 46.5548C90.2683 46.5548 86.9858 42.8035 85.7478 39.7356L90.0502 37.8939C90.8163 39.7774 92.6935 42 95.7173 42C99.4261 42 101.724 39.6469 101.724 35.2174V33.553H101.552C100.446 34.9565 98.3149 36.1826 95.626 36.1826C89.9994 36.1826 84.8447 31.1426 84.8447 24.6574C84.8447 18.1252 89.9994 13.0435 95.626 13.0435C98.3099 13.0435 100.441 14.2695 101.552 15.6313H101.724V13.7478H106.417V13.7426ZM102.074 24.6574C102.074 20.5826 99.4311 17.6035 96.0674 17.6035C92.658 17.6035 89.8016 20.5826 89.8016 24.6574C89.8016 28.6904 92.658 31.6278 96.0674 31.6278C99.4311 31.6278 102.074 28.6904 102.074 24.6574Z" fill="#4285F4"/>
<path d="M114.154 1.56525V35.4783H109.335V1.56525H114.154Z" fill="#34A853"/>
<path d="M132.937 28.4244L136.772 31.0539C135.534 32.9374 132.551 36.1826 127.396 36.1826C121.004 36.1826 116.229 31.1009 116.229 24.6104C116.229 17.7287 121.044 13.0383 126.843 13.0383C132.683 13.0383 135.539 17.8174 136.473 20.4L136.985 21.7148L121.942 28.1217C123.094 30.4435 124.885 31.6278 127.396 31.6278C129.913 31.6278 131.658 30.3548 132.937 28.4244ZM121.131 24.2609L131.186 19.967C130.633 18.5217 128.969 17.5148 127.011 17.5148C124.499 17.5148 121.004 19.7948 121.131 24.2609Z" fill="#EA4335"/>
<path d="M17.9045 21.6052V16.6957H33.9926C34.1499 17.5513 34.2311 18.5635 34.2311 19.6592C34.2311 23.3426 33.2519 27.8974 30.0961 31.1426C27.0267 34.4296 23.1048 36.1826 17.9095 36.1826C8.27997 36.1826 0.182617 28.1165 0.182617 18.2139C0.182617 8.31133 8.27997 0.245239 17.9095 0.245239C23.2367 0.245239 27.0317 2.3948 29.8831 5.19654L26.5142 8.66089C24.4696 6.68872 21.6995 5.1548 17.9045 5.1548C10.8725 5.1548 5.37284 10.9826 5.37284 18.2139C5.37284 25.4452 10.8725 31.2731 17.9045 31.2731C22.4656 31.2731 25.0632 29.3896 26.7273 27.6783C28.0769 26.2905 28.9647 24.3078 29.3148 21.6L17.9045 21.6052Z" fill="#4285F4"/>
</svg>
