<svg width="148" height="42" viewBox="0 0 148 42" fill="none" xmlns="http://www.w3.org/2000/svg">
<path d="M38.449 0H45.2516V41.9986H38.449V0Z" fill="black"/>
<path d="M68.9135 28.6868C68.9135 35.1937 63.5897 35.7852 61.8151 35.7852C57.6744 35.7852 57.0829 31.9403 57.0829 29.8699V13.6028H50.2803V29.5741C50.2803 33.4191 51.4633 36.9683 53.8295 39.0386C55.8998 41.109 58.5617 41.9963 61.8151 41.9963C64.1812 41.9963 67.1389 41.4047 68.9135 39.6302V41.9963H75.7161V13.6028H68.9135V28.6868Z" fill="black"/>
<path d="M89.0259 3.25049H82.2233V13.6023H77.1953V20.1091H82.2233V41.9957H89.0259V20.1091H94.0539V13.6023H89.0259V3.25049Z" fill="black"/>
<path d="M115.348 33.4215C113.87 34.6046 111.799 35.4919 109.729 35.4919C104.997 35.4919 101.743 31.9427 101.743 27.2104C101.743 22.4782 104.997 19.2248 109.729 19.2248C111.799 19.2248 113.87 19.8163 115.348 21.2951L116.236 22.1824L120.968 17.746L119.785 16.8587C117.123 14.4926 113.574 13.0137 109.729 13.0137C101.447 13.0137 95.2363 19.2248 95.2363 27.5062C95.2363 35.7876 101.447 41.9987 109.729 41.9987C113.574 41.9987 117.123 40.5199 119.785 38.1538L120.968 37.2665L116.236 32.5342L115.348 33.4215Z" fill="black"/>
<path d="M144.925 15.9713C142.855 13.901 140.785 13.0137 137.531 13.0137C135.165 13.0137 132.799 13.6052 131.025 15.3798V0H124.222V41.9986H131.025V26.3231C131.025 19.8163 135.461 19.2247 137.236 19.2247C141.376 19.2247 141.081 23.0697 141.081 25.14V41.7029H147.883V25.4358C147.883 21.5908 146.996 18.0417 144.925 15.9713Z" fill="black"/>
<path d="M109.433 32.2348C112.046 32.2348 114.165 30.1161 114.165 27.5026C114.165 24.889 112.046 22.7703 109.433 22.7703C106.819 22.7703 104.701 24.889 104.701 27.5026C104.701 30.1161 106.819 32.2348 109.433 32.2348Z" fill="#EF4335"/>
<path d="M28.985 31.6482C26.6188 34.0143 23.0697 35.4931 19.2247 35.4931C11.8306 35.4931 6.50683 29.5778 6.50683 21.5922C6.50683 13.6065 11.8306 7.69121 19.5205 7.69121C23.0697 7.69121 26.6188 9.17003 29.2807 11.8319L30.168 12.7192L34.6045 8.28274L33.7172 7.39544C29.8723 3.5505 24.8443 1.48014 19.5205 1.48014C8.28142 1.18438 0 10.0573 0 21.5922C0 33.127 8.28142 41.9999 19.2247 41.9999C24.5485 41.9999 29.8723 39.9296 33.4214 36.0846L34.3087 35.1974L29.8723 30.7609L28.985 31.6482Z" fill="black"/>
</svg>
