<svg width="41" height="40" viewBox="0 0 41 40" fill="none" xmlns="http://www.w3.org/2000/svg">
<g clip-path="url(#clip0_14223_16072)">
<path d="M35.5063 11.2948H29.667C29.8243 10.3786 30.3918 9.86579 31.5405 9.28459L32.614 8.73758C34.5354 7.75297 35.561 6.63844 35.561 4.81965C35.561 3.67777 35.1166 2.77521 34.2345 2.12564C33.3525 1.47607 32.3131 1.1547 31.0961 1.1547C30.1545 1.14363 29.2302 1.40739 28.4362 1.91367C27.6362 2.40598 27.0414 3.04187 26.6721 3.83503L28.361 5.53076C29.0174 4.20426 29.9679 3.55469 31.2191 3.55469C32.279 3.55469 32.9285 4.1017 32.9285 4.86067C32.9285 5.49657 32.614 6.02306 31.3969 6.63844L30.7063 6.97349C29.2089 7.73246 28.1696 8.60083 27.5679 9.58544C26.9661 10.5701 26.6721 11.8077 26.6721 13.3051V13.7153H35.5063V11.2948Z" fill="#FF492C"/>
<path d="M34.7281 16.5052H25.0597L20.2255 24.8744H29.8939L34.7281 33.2505L39.5622 24.8744L34.7281 16.5052Z" fill="#FF492C"/>
<path d="M21.0565 30.4605C14.9026 30.4605 9.89069 25.4486 9.89069 19.2947C9.89069 13.1409 14.9026 8.12897 21.0565 8.12897L24.8787 0.135833C23.62 -0.11446 22.3398 -0.240421 21.0565 -0.240234C10.2668 -0.240234 1.52148 8.50504 1.52148 19.2947C1.52148 30.0845 10.2668 38.8297 21.0565 38.8297C25.1913 38.8375 29.2206 37.5247 32.5573 35.0827L28.3317 27.7528C26.3101 29.4991 23.7279 30.4602 21.0565 30.4605Z" fill="#FF492C"/>
</g>
<defs>
<clipPath id="clip0_14223_16072">
<rect width="39.07" height="39.07" fill="white" transform="translate(0.986328 0.224609)"/>
</clipPath>
</defs>
</svg>
