<svg width="195" height="120" viewBox="0 0 195 120" fill="none" xmlns="http://www.w3.org/2000/svg">
<path d="M41.9467 0H72.631L53.6023 120H22.918L41.9467 0Z" fill="#F9383C"/>
<path d="M115.32 26.0577H81.0352L85.1487 0H184.406L180.292 26.0577H146.007L131.092 120H100.408L115.323 26.0577H115.32Z" fill="#F9383C"/>
<path d="M1.47266 63.4369V32.1641H10.9493L18.2771 47.5681L21.2166 54.8959H21.7297L24.5757 47.5681L31.6711 32.1641H41.193V63.4369H34.1912V47.5681L34.4235 42.6668H33.9105L32.0906 47.5681L25.5566 61.5718H17.0608L10.5268 47.5681L8.70688 42.6668H8.19381L8.47449 47.5681V63.4369H1.47266Z" fill="black"/>
<path d="M42.7812 63.4369L56.459 32.1641H66.4487L80.2199 63.4369H72.192L69.2524 56.5286H53.616L50.6281 63.4369H42.7873H42.7812ZM56.3171 50.227H66.5392L63.5996 43.4123L61.6862 38.5593H61.1731L59.2597 43.4123L56.3201 50.227H56.3171Z" fill="black"/>
<path d="M81.8507 63.4369V32.1641H88.8525V44.5802H96.6481L104.957 32.1641H113.359L102.482 47.5681L113.217 63.4369H104.815L96.7386 51.395H88.8495V63.4369H81.8477H81.8507Z" fill="black"/>
<path d="M115.129 63.4369V32.1641H122.131V63.4369H115.129Z" fill="black"/>
<path d="M125.816 63.4369V32.1641H133.286L144.489 46.9615L148.784 53.5438H149.297L148.971 47.2422V32.1641H155.973V63.4369H148.503L136.974 48.5007L133.005 42.6185H132.538L132.818 48.3588V63.4369H125.816Z" fill="black"/>
<path d="M159.008 47.7995C159.008 38.0452 165.635 31.6953 176.374 31.6953C186.176 31.6953 192.384 36.2706 192.384 43.7856V44.1598H184.589V43.7856C184.589 40.1458 182.207 38.4165 176.186 38.4165C169.091 38.4165 166.432 40.843 166.432 47.7995C166.432 54.7561 169.001 57.1826 175.86 57.1826C182.72 57.1826 185.244 56.0629 185.431 52.0942H174.834V46.9122H192.433V63.436H185.944V56.7148H185.569C184.495 60.8224 181.23 63.9038 174.46 63.9038C164.89 63.9038 159.011 57.5568 159.011 47.7995H159.008Z" fill="black"/>
<path d="M0 99.0574V72.2422H14.0097C20.2118 72.2422 24.2167 75.7642 24.2167 81.927C24.2167 88.0899 20.2148 91.6542 14.0097 91.6542H6.00589V99.0574H0.00301868H0ZM6.00287 77.6445V86.2489H13.3669C16.6897 86.2489 18.25 85.2891 18.25 81.927C18.25 78.565 16.6897 77.6445 13.3669 77.6445H6.00287Z" fill="black"/>
<path d="M25.7305 85.6513C25.7305 77.2853 31.2535 71.8438 40.1386 71.8438C49.0236 71.8438 54.7066 77.2883 54.7066 85.6513C54.7066 94.0142 49.2228 99.4588 40.1386 99.4588C31.0543 99.4588 25.7305 94.0142 25.7305 85.6513ZM48.3054 85.6513C48.3054 79.6876 46.0237 77.6052 40.1416 77.6052C34.2594 77.6052 32.0955 79.6876 32.0955 85.6513C32.0955 91.6149 34.2564 93.6973 40.1416 93.6973C46.0267 93.6973 48.3054 91.6149 48.3054 85.6513Z" fill="black"/>
<path d="M56.7892 90.0123V89.7709H62.7921V90.4922C62.7921 92.973 64.0325 93.975 69.477 93.975C74.2787 93.975 75.4014 93.2537 75.4014 91.4549C75.4014 89.8131 74.4809 89.2125 71.7194 88.7327L64.1955 87.6522C59.3938 86.8917 56.5508 84.4893 56.5508 80.1282C56.5508 76.0871 59.8314 71.8438 68.8372 71.8438C77.0825 71.8438 80.9244 75.6465 80.9244 81.2902V81.5316H74.8823V80.9703C74.8823 78.408 73.5604 77.3275 68.2396 77.3275C63.9178 77.3275 62.5959 78.1695 62.5959 79.8898C62.5959 81.4501 63.4772 82.0115 65.7165 82.4099L73.2405 83.6111C79.2434 84.5708 81.4043 87.4922 81.4043 91.1742C81.4043 95.5383 78.003 99.4588 69.477 99.4588C60.9511 99.4588 56.7892 96.2566 56.7892 90.0123Z" fill="black"/>
<path d="M83.3244 90.0123V89.7709H89.3272V90.4922C89.3272 92.973 90.5676 93.975 96.0122 93.975C100.814 93.975 101.937 93.2537 101.937 91.4549C101.937 89.8131 101.016 89.2125 98.2546 88.7327L90.7306 87.6522C85.9289 86.8917 83.0859 84.4893 83.0859 80.1282C83.0859 76.0871 86.3665 71.8438 95.3724 71.8438C103.618 71.8438 107.46 75.6465 107.46 81.2902V81.5316H101.417V80.9703C101.417 78.408 100.096 77.3275 94.7748 77.3275C90.453 77.3275 89.1311 78.1695 89.1311 79.8898C89.1311 81.4501 90.0123 82.0115 92.2517 82.4099L99.7757 83.6111C105.779 84.5708 107.939 87.4922 107.939 91.1742C107.939 95.5383 104.538 99.4588 96.0122 99.4588C87.4862 99.4588 83.3244 96.2566 83.3244 90.0123Z" fill="black"/>
<path d="M110.383 99.0574V72.2422H116.386V99.0574H110.383Z" fill="black"/>
<path d="M119.422 99.0574V72.2422H135.511C140.995 72.2422 143.955 74.5631 143.955 78.7672C143.955 82.09 142.196 84.4894 137.711 84.8093V85.1684C142.673 85.5276 145.075 88.0114 145.075 91.6119C145.075 96.1752 142.274 99.0574 136.272 99.0574H119.422ZM125.428 82.8868H134.832C137.032 82.8868 137.953 82.1262 137.953 80.2852C137.953 78.4442 136.993 77.6445 134.75 77.6445H125.425V82.8868H125.428ZM125.428 93.6551H135.553C137.995 93.6551 138.994 92.8946 138.994 90.7337C138.994 88.5728 137.992 87.8514 135.553 87.8514H125.428V93.6551Z" fill="black"/>
<path d="M147.285 99.0574V72.2422H153.288V93.6551H169.256V99.0574H147.285Z" fill="black"/>
<path d="M171.652 99.0574V72.2422H194.345V77.6445H177.655V82.8868H193.744V88.2498H177.655V93.6521H194.345V99.0544H171.652V99.0574Z" fill="black"/>
</svg>
